<?xml version="1.0" standalone="no"?><!DOCTYPE svg PUBLIC "-//W3C//DTD SVG 1.1//EN" "http://www.w3.org/Graphics/SVG/1.1/DTD/svg11.dtd"><svg t="1636458155619" class="icon" viewBox="0 0 1024 1024" version="1.1" xmlns="http://www.w3.org/2000/svg" p-id="2937" xmlns:xlink="http://www.w3.org/1999/xlink" width="200" height="200"><defs><style type="text/css"></style></defs><path d="M512 272A240.32 240.32 0 0 0 272 512 239.36 239.36 0 0 0 384 714.24V576.576A141.76 141.76 0 0 1 368 512c0-79.36 64.576-144 144-144S656 432.64 656 512c0 23.36-6.08 45.056-16 64.576v137.664A239.552 239.552 0 0 0 752 512 240.32 240.32 0 0 0 512 272z" fill="#8A2BE2" p-id="2938"></path><path d="M448 512h128v128H448zM448 704h126.144v320H448z" fill="#8A2BE2" p-id="2939"></path><path d="M512 12.544C236.608 12.544 12.544 236.608 12.544 512c0 231.104 157.952 425.472 371.456 482.176v-99.904C224.128 840.576 108.544 689.664 108.544 512A403.904 403.904 0 0 1 512 108.544 403.904 403.904 0 0 1 915.456 512c0 177.664-115.584 328.576-275.456 382.272v99.904c213.44-56.768 371.456-251.136 371.456-482.176C1011.456 236.608 787.392 12.544 512 12.544z" fill="#8A2BE2" p-id="2940"></path></svg>